<?xml version="1.0" encoding="iso-8859-1"?>
<!-- Generator: Adobe Illustrator 19.0.0, SVG Export Plug-In . SVG Version: 6.00 Build 0)  -->
<svg version="1.1" id="Capa_1" xmlns="http://www.w3.org/2000/svg" xmlns:xlink="http://www.w3.org/1999/xlink" x="0px" y="0px"
	 viewBox="0 0 512 512" style="enable-background:new 0 0 512 512;" xml:space="preserve">
<g>
	<path style="fill:#FFFFFF;" d="M256,128c-21.879,0-41.454-9.655-54.857-24.878v98.021h109.714v-98.021
		C297.454,118.345,277.879,128,256,128z"/>
	<path style="fill:#FFFFFF;" d="M320,236.233v-16.805H192v16.805c0,19.145-1.189,47.314-8,65.481
		c-6.811,18.167-10.286,37.193-10.286,56.338v71.662h164.571v-71.662c0-19.145-3.474-38.171-10.286-56.338
		C321.189,283.547,320,255.378,320,236.233z"/>
	<path style="fill:#FFFFFF;" d="M393.143,502.857H118.857c-10.103,0-18.286-8.183-18.286-18.286v-9.143
		c0-10.103,8.183-18.286,18.286-18.286h274.286c10.103,0,18.286,8.183,18.286,18.286v9.143
		C411.429,494.674,403.246,502.857,393.143,502.857z"/>
</g>
<g>
	<path style="fill:#FFFFFF;" d="M347.429,457.143H164.571c-10.103,0-18.286-8.183-18.286-18.286l0,0
		c0-10.103,8.183-18.286,18.286-18.286h182.857c10.103,0,18.286,8.183,18.286,18.286l0,0
		C365.714,448.96,357.531,457.143,347.429,457.143z"/>
	<path style="fill:#FFFFFF;" d="M347.429,228.571H164.571c-10.103,0-18.286-8.183-18.286-18.286l0,0
		c0-10.103,8.183-18.286,18.286-18.286h182.857c10.103,0,18.286,8.183,18.286,18.286l0,0
		C365.714,220.389,357.531,228.571,347.429,228.571z"/>
	<circle style="fill:#FFFFFF;" cx="256" cy="82.286" r="73.143"/>
</g>
<g>
	<path style="fill:#000000;" d="M393.143,512H118.857c-15.122,0-27.429-12.306-27.429-27.429v-9.143
		c0-15.122,12.306-27.429,27.429-27.429h274.286c15.122,0,27.429,12.306,27.429,27.429v9.143
		C420.571,499.694,408.265,512,393.143,512z M118.857,466.286c-5.047,0-9.143,4.105-9.143,9.143v9.143
		c0,5.038,4.096,9.143,9.143,9.143h274.286c5.047,0,9.143-4.105,9.143-9.143v-9.143c0-5.038-4.096-9.143-9.143-9.143H118.857z"/>
	<path style="fill:#000000;" d="M347.429,466.286H164.571c-15.122,0-27.429-12.306-27.429-27.429
		c0-15.122,12.306-27.429,27.429-27.429h182.857c15.122,0,27.429,12.306,27.429,27.429
		C374.857,453.979,362.551,466.286,347.429,466.286z M164.571,429.714c-5.047,0-9.143,4.105-9.143,9.143
		c0,5.038,4.096,9.143,9.143,9.143h182.857c5.047,0,9.143-4.105,9.143-9.143c0-5.038-4.096-9.143-9.143-9.143H164.571z"/>
	<path style="fill:#000000;" d="M347.429,237.714H164.571c-15.122,0-27.429-12.306-27.429-27.429s12.306-27.429,27.429-27.429
		h182.857c15.122,0,27.429,12.306,27.429,27.429S362.551,237.714,347.429,237.714z M164.571,201.143
		c-5.047,0-9.143,4.105-9.143,9.143s4.096,9.143,9.143,9.143h182.857c5.047,0,9.143-4.105,9.143-9.143s-4.096-9.143-9.143-9.143
		H164.571z"/>
	<path style="fill:#000000;" d="M338.286,429.714H173.714c-5.047,0-9.143-4.096-9.143-9.143v-62.519
		c0-20.279,3.657-40.311,10.871-59.547c4.846-12.946,7.415-34.478,7.415-62.272v-7.662c0-5.047,4.096-9.143,9.143-9.143h128
		c5.047,0,9.143,4.096,9.143,9.143v7.662c0,27.794,2.569,49.326,7.415,62.272c7.214,19.237,10.871,39.269,10.871,59.547v62.519
		C347.429,425.618,343.333,429.714,338.286,429.714z M182.857,411.429h146.286v-53.376c0-18.085-3.264-35.959-9.701-53.129
		c-5.605-14.939-8.494-37.55-8.585-67.209H201.143c-0.091,29.659-2.981,52.27-8.576,67.209c-6.446,17.17-9.71,35.054-9.71,53.129
		V411.429z"/>
	<path style="fill:#000000;" d="M256,164.571c-45.376,0-82.286-36.919-82.286-82.286S210.624,0,256,0s82.286,36.919,82.286,82.286
		S301.376,164.571,256,164.571z M256,18.286c-35.291,0-64,28.709-64,64s28.709,64,64,64s64-28.709,64-64S291.291,18.286,256,18.286z
		"/>
	<path style="fill:#000000;" d="M310.857,201.143H201.143c-5.047,0-9.143-4.096-9.143-9.143v-61.449
		c0-3.803,2.359-7.214,5.915-8.558c3.566-1.335,7.579-0.347,10.094,2.514c12.178,13.842,29.678,21.778,47.991,21.778
		c18.313,0,35.813-7.936,48-21.769c2.514-2.853,6.528-3.849,10.094-2.514c3.547,1.344,5.906,4.745,5.906,8.549V192
		C320,197.047,315.904,201.143,310.857,201.143z M210.286,182.857h91.429v-32.229c-13.422,8.997-29.312,13.943-45.714,13.943
		c-16.402,0-32.293-4.946-45.714-13.943V182.857z"/>
</g>
<g>
</g>
<g>
</g>
<g>
</g>
<g>
</g>
<g>
</g>
<g>
</g>
<g>
</g>
<g>
</g>
<g>
</g>
<g>
</g>
<g>
</g>
<g>
</g>
<g>
</g>
<g>
</g>
<g>
</g>
</svg>
