<?xml version="1.0" encoding="iso-8859-1"?>
<!-- Generator: Adobe Illustrator 19.0.0, SVG Export Plug-In . SVG Version: 6.00 Build 0)  -->
<svg version="1.1" id="Capa_1" xmlns="http://www.w3.org/2000/svg" xmlns:xlink="http://www.w3.org/1999/xlink" x="0px" y="0px"
	 viewBox="0 0 512 512" style="enable-background:new 0 0 512 512;" xml:space="preserve">
<g>
	<rect x="204.8" y="170.667" style="fill:#000000;" width="102.4" height="51.2"/>
	<path style="fill:#000000;" d="M315.733,254.618v-15.684H196.267v15.684c0,17.869-1.109,44.16-7.467,61.116
		c-6.357,16.956-9.6,34.714-9.6,52.582V435.2h153.6v-66.884c0-17.869-3.243-35.627-9.6-52.582
		C316.843,298.778,315.733,272.486,315.733,254.618z"/>
	<path style="fill:#000000;" d="M384,503.467H128c-9.429,0-17.067-7.637-17.067-17.067v-8.533c0-9.429,7.637-17.067,17.067-17.067
		h256c9.429,0,17.067,7.637,17.067,17.067v8.533C401.067,495.829,393.429,503.467,384,503.467z"/>
</g>
<g>
	<path style="fill:#000000;" d="M341.333,460.8H170.667c-9.429,0-17.067-7.637-17.067-17.067l0,0
		c0-9.429,7.637-17.067,17.067-17.067h170.667c9.429,0,17.067,7.637,17.067,17.067l0,0C358.4,453.163,350.763,460.8,341.333,460.8z"
		/>
	<path style="fill:#000000;" d="M341.333,247.467H170.667c-9.429,0-17.067-7.637-17.067-17.067l0,0
		c0-9.429,7.637-17.067,17.067-17.067h170.667c9.429,0,17.067,7.637,17.067,17.067l0,0
		C358.4,239.829,350.763,247.467,341.333,247.467z"/>
	<path style="fill:#000000;" d="M307.2,76.8c0,0-10.505-10.675-22.127-24.422c-0.896,5.478-4.48,10.428-10.735,11.75
		c-1.502,0.521-3.132,0.879-5.009,0.879c-0.299,0-0.546-0.068-0.828-0.085c-0.256,0.017-0.512,0.085-0.768,0.085h-0.529
		c-2.577,0-4.907-0.708-6.955-1.843c-0.998-0.324-1.749-0.922-2.577-1.425c-2.628,2.227-5.999,3.644-9.668,3.806
		c-3.268,0.145-6.281-1.084-8.772-3.021c-3.977,0.64-8.235-0.384-11.682-2.679c-1.562-0.913-2.842-2.125-3.951-3.499
		C213.385,68.13,204.8,76.8,204.8,76.8s-25.6,25.6-25.6,51.2s25.6,51.2,25.6,51.2h102.4c0,0,25.6-25.6,25.6-51.2
		S307.2,76.8,307.2,76.8z"/>
</g>
<path style="fill:#000000;" d="M256,8.533c-4.873,14.626-20.873,34.799-33.715,49.425C238.865,84.002,256,110.933,256,110.933
	l33.715-52.975C276.873,43.332,260.873,23.159,256,8.533z"/>
<g>
	<path style="fill:#FFFFFF;" d="M384,512H128c-14.114,0-25.6-11.486-25.6-25.6v-8.533c0-14.114,11.486-25.6,25.6-25.6h256
		c14.114,0,25.6,11.486,25.6,25.6v8.533C409.6,500.514,398.114,512,384,512z M128,469.333c-4.71,0-8.533,3.831-8.533,8.533v8.533
		c0,4.702,3.823,8.533,8.533,8.533h256c4.71,0,8.533-3.831,8.533-8.533v-8.533c0-4.702-3.823-8.533-8.533-8.533H128z"/>
	<path style="fill:#FFFFFF;" d="M341.333,469.333H170.667c-14.114,0-25.6-11.486-25.6-25.6c0-14.114,11.486-25.6,25.6-25.6h170.667
		c14.114,0,25.6,11.486,25.6,25.6C366.933,457.847,355.447,469.333,341.333,469.333z M170.667,435.2
		c-4.71,0-8.533,3.831-8.533,8.533c0,4.702,3.823,8.533,8.533,8.533h170.667c4.71,0,8.533-3.831,8.533-8.533
		c0-4.702-3.823-8.533-8.533-8.533H170.667z"/>
	<path style="fill:#FFFFFF;" d="M341.333,256H170.667c-14.114,0-25.6-11.486-25.6-25.6c0-14.114,11.486-25.6,25.6-25.6h170.667
		c14.114,0,25.6,11.486,25.6,25.6C366.933,244.514,355.447,256,341.333,256z M170.667,221.867c-4.71,0-8.533,3.831-8.533,8.533
		s3.823,8.533,8.533,8.533h170.667c4.71,0,8.533-3.831,8.533-8.533s-3.823-8.533-8.533-8.533H170.667z"/>
	<path style="fill:#FFFFFF;" d="M307.2,221.867H204.8c-4.71,0-8.533-3.823-8.533-8.533V179.2c0-4.71,3.823-8.533,8.533-8.533h102.4
		c4.71,0,8.533,3.823,8.533,8.533v34.133C315.733,218.044,311.91,221.867,307.2,221.867z M213.333,204.8h85.333v-17.067h-85.333
		V204.8z"/>
	<path style="fill:#FFFFFF;" d="M332.8,435.2H179.2c-4.71,0-8.533-3.823-8.533-8.533v-58.351c0-18.927,3.413-37.623,10.146-55.578
		c4.523-12.083,6.921-32.179,6.921-58.121v-7.151c0-4.71,3.823-8.533,8.533-8.533h119.467c4.71,0,8.533,3.823,8.533,8.533v7.151
		c0,25.941,2.398,46.037,6.921,58.121c6.733,17.954,10.146,36.651,10.146,55.578v58.351C341.333,431.377,337.51,435.2,332.8,435.2z
		 M187.733,418.133h136.533v-49.818c0-16.879-3.046-33.562-9.054-49.587c-5.231-13.943-7.927-35.046-8.013-62.729H204.8
		c-0.085,27.682-2.782,48.785-8.004,62.729c-6.016,16.026-9.062,32.717-9.062,49.587V418.133z"/>
	<path style="fill:#FFFFFF;" d="M307.2,187.733H204.8c-2.261,0-4.437-0.896-6.033-2.5c-1.152-1.143-28.1-28.433-28.1-57.233
		s26.948-56.09,28.1-57.233c11.469-11.477,42.667-45.517,49.135-64.93C249.071,2.347,252.331,0,256,0
		c3.669,0,6.929,2.347,8.098,5.837c6.468,19.413,37.666,53.453,49.143,64.93l0,0C314.385,71.91,341.333,99.2,341.333,128
		s-26.948,56.09-28.1,57.233C311.637,186.837,309.461,187.733,307.2,187.733z M208.529,170.667h94.95
		c5.854-6.596,20.787-25.139,20.787-42.667c0-21.555-22.579-44.629-23.1-45.167l0,0c-1.468-1.459-29.764-29.901-45.167-55.1
		c-15.403,25.199-43.699,53.641-45.167,55.1c-0.222,0.222-23.1,23.475-23.1,45.167C187.733,145.527,202.667,164.07,208.529,170.667z
		"/>
	<path style="fill:#FFFFFF;" d="M256,119.467c-2.918,0-5.632-1.493-7.202-3.951l-33.715-52.975c-2.039-3.2-1.715-7.364,0.785-10.214
		c17.195-19.593,28.57-36.105,32.034-46.498C249.071,2.347,252.331,0,256,0c3.669,0,6.929,2.347,8.098,5.837
		c3.465,10.394,14.839,26.906,32.034,46.498c2.5,2.85,2.825,7.014,0.785,10.214l-33.715,52.975
		C261.632,117.973,258.918,119.467,256,119.467z M232.9,58.735L256,95.036l23.1-36.301c-9.907-11.622-17.63-21.965-23.1-30.933
		C250.53,36.77,242.807,47.113,232.9,58.735z"/>
</g>
<g>
</g>
<g>
</g>
<g>
</g>
<g>
</g>
<g>
</g>
<g>
</g>
<g>
</g>
<g>
</g>
<g>
</g>
<g>
</g>
<g>
</g>
<g>
</g>
<g>
</g>
<g>
</g>
<g>
</g>
</svg>
