<?xml version="1.0" encoding="iso-8859-1"?>
<!-- Generator: Adobe Illustrator 19.0.0, SVG Export Plug-In . SVG Version: 6.00 Build 0)  -->
<svg version="1.1" id="Capa_1" xmlns="http://www.w3.org/2000/svg" xmlns:xlink="http://www.w3.org/1999/xlink" x="0px" y="0px"
	 viewBox="0 0 512 512" style="enable-background:new 0 0 512 512;" xml:space="preserve">
<path style="fill:#FFFFFF;" d="M273.067,85.999V68.267h25.6V34.133h-25.6v-25.6h-34.133v25.6h-25.6v34.133h25.6v17.732
	c-25.327,1.903-47.053,16.512-60.885,24.934L179.2,128l8.533,25.6H230.4h51.2h42.667L332.8,128l1.152-17.067
	C320.119,102.511,298.394,87.902,273.067,85.999z"/>
<g>
	<rect x="204.8" y="213.333" style="fill:#FFFFFF;" width="102.4" height="51.2"/>
	<path style="fill:#FFFFFF;" d="M307.2,297.284V281.6H204.8v15.684c0,17.869-2.884,35.627-8.533,52.582
		c-5.649,16.956-8.533,26.18-8.533,44.049V435.2h136.533v-41.284c0-17.869-2.884-27.093-8.533-44.049
		C310.084,332.911,307.2,315.153,307.2,297.284z"/>
	<path style="fill:#FFFFFF;" d="M384,503.467H128c-9.429,0-17.067-7.637-17.067-17.067v-8.533c0-9.429,7.637-17.067,17.067-17.067
		h256c9.429,0,17.067,7.637,17.067,17.067v8.533C401.067,495.829,393.429,503.467,384,503.467z"/>
</g>
<g>
	<path style="fill:#FFFFFF;" d="M341.333,460.8H170.667c-9.429,0-17.067-7.637-17.067-17.067l0,0
		c0-9.429,7.637-17.067,17.067-17.067h170.667c9.429,0,17.067,7.637,17.067,17.067l0,0C358.4,453.163,350.763,460.8,341.333,460.8z"
		/>
	<rect x="179.2" y="256" style="fill:#FFFFFF;" width="153.6" height="34.133"/>
	<rect x="179.2" y="187.733" style="fill:#FFFFFF;" width="153.6" height="34.133"/>
</g>
<polygon style="fill:#FFFFFF;" points="324.267,110.933 324.267,145.067 281.6,145.067 281.6,119.467 230.4,119.467 230.4,145.067 
	187.733,145.067 187.733,110.933 153.6,110.933 153.6,153.6 179.2,187.733 332.8,187.733 358.4,153.6 358.4,110.933 "/>
<g>
	<path style="fill:#000000;" d="M384,512H128c-14.114,0-25.6-11.486-25.6-25.6v-8.533c0-14.114,11.486-25.6,25.6-25.6h256
		c14.114,0,25.6,11.486,25.6,25.6v8.533C409.6,500.514,398.114,512,384,512z M128,469.333c-4.71,0-8.533,3.831-8.533,8.533v8.533
		c0,4.702,3.823,8.533,8.533,8.533h256c4.71,0,8.533-3.831,8.533-8.533v-8.533c0-4.702-3.823-8.533-8.533-8.533H128z"/>
	<path style="fill:#000000;" d="M341.333,469.333H170.667c-14.114,0-25.6-11.486-25.6-25.6c0-14.114,11.486-25.6,25.6-25.6h170.667
		c14.114,0,25.6,11.486,25.6,25.6C366.933,457.847,355.447,469.333,341.333,469.333z M170.667,435.2
		c-4.71,0-8.533,3.831-8.533,8.533c0,4.702,3.823,8.533,8.533,8.533h170.667c4.71,0,8.533-3.831,8.533-8.533
		c0-4.702-3.823-8.533-8.533-8.533H170.667z"/>
	<path style="fill:#000000;" d="M332.8,298.667H179.2c-4.71,0-8.533-3.823-8.533-8.533V256c0-4.71,3.823-8.533,8.533-8.533h153.6
		c4.71,0,8.533,3.823,8.533,8.533v34.133C341.333,294.844,337.51,298.667,332.8,298.667z M187.733,281.6h136.533v-17.067H187.733
		V281.6z"/>
	<path style="fill:#000000;" d="M332.8,230.4H179.2c-4.71,0-8.533-3.823-8.533-8.533v-34.133c0-4.71,3.823-8.533,8.533-8.533h153.6
		c4.71,0,8.533,3.823,8.533,8.533v34.133C341.333,226.577,337.51,230.4,332.8,230.4z M187.733,213.333h136.533v-17.067H187.733
		V213.333z"/>
	<path style="fill:#000000;" d="M307.2,264.533H204.8c-4.71,0-8.533-3.823-8.533-8.533v-34.133c0-4.71,3.823-8.533,8.533-8.533
		h102.4c4.71,0,8.533,3.823,8.533,8.533V256C315.733,260.71,311.91,264.533,307.2,264.533z M213.333,247.467h85.333V230.4h-85.333
		V247.467z"/>
	<path style="fill:#000000;" d="M324.267,435.2H187.733c-4.71,0-8.533-3.823-8.533-8.533v-32.751
		c0-18.944,3.081-29.056,8.969-46.746c5.376-16.119,8.098-32.905,8.098-49.886v-7.151c0-4.71,3.823-8.533,8.533-8.533h102.4
		c4.71,0,8.533,3.823,8.533,8.533v7.151c0,16.981,2.722,33.766,8.098,49.886c5.888,17.69,8.969,27.802,8.969,46.746v32.751
		C332.8,431.377,328.977,435.2,324.267,435.2z M196.267,418.133h119.467v-24.218c0-16.367-2.483-24.508-8.098-41.353
		c-5.803-17.425-8.823-35.55-8.969-53.897h-85.342c-0.145,18.347-3.157,36.471-8.969,53.897c-5.606,16.845-8.09,24.986-8.09,41.353
		V418.133z"/>
	<path style="fill:#000000;" d="M332.8,196.267H179.2c-2.688,0-5.214-1.263-6.827-3.413l-25.6-34.133
		c-1.109-1.476-1.707-3.277-1.707-5.12v-42.667c0-4.71,3.823-8.533,8.533-8.533h34.133c4.71,0,8.533,3.823,8.533,8.533v25.6h25.6
		v-17.067c0-4.71,3.823-8.533,8.533-8.533h51.2c4.71,0,8.533,3.823,8.533,8.533v17.067h25.6v-25.6c0-4.71,3.823-8.533,8.533-8.533
		H358.4c4.71,0,8.533,3.823,8.533,8.533V153.6c0,1.843-0.597,3.644-1.707,5.12l-25.6,34.133
		C338.014,195.004,335.488,196.267,332.8,196.267z M183.467,179.2h145.067l21.333-28.442v-31.292H332.8v25.6
		c0,4.71-3.823,8.533-8.533,8.533H281.6c-4.71,0-8.533-3.823-8.533-8.533V128h-34.133v17.067c0,4.71-3.823,8.533-8.533,8.533
		h-42.667c-4.71,0-8.533-3.823-8.533-8.533v-25.6h-17.067v31.292L183.467,179.2z"/>
	<path style="fill:#000000;" d="M324.267,153.6H281.6c-4.71,0-8.533-3.823-8.533-8.533V128h-34.133v17.067
		c0,4.71-3.823,8.533-8.533,8.533h-42.667c-4.71,0-8.533-3.823-8.533-8.533v-25.6h-1.152c-3.823,0-7.185-2.543-8.218-6.229
		c-1.033-3.678,0.512-7.603,3.78-9.591l3.456-2.125c12.774-7.876,31.394-19.371,53.333-23.066V76.8h-17.067
		c-4.71,0-8.533-3.823-8.533-8.533V34.133c0-4.71,3.823-8.533,8.533-8.533H230.4V8.533c0-4.71,3.823-8.533,8.533-8.533h34.133
		c4.71,0,8.533,3.823,8.533,8.533V25.6h17.067c4.71,0,8.533,3.823,8.533,8.533v34.133c0,4.71-3.823,8.533-8.533,8.533H281.6v1.655
		c21.939,3.703,40.559,15.189,53.333,23.066l3.456,2.125c3.268,1.988,4.813,5.914,3.78,9.591c-1.033,3.686-4.395,6.229-8.218,6.229
		H332.8v25.6C332.8,149.777,328.977,153.6,324.267,153.6z M290.133,136.533h25.6v-25.6c0-0.35,0.017-0.691,0.06-1.024
		c-12.186-7.049-27.025-14.174-43.366-15.403c-4.454-0.333-7.893-4.036-7.893-8.508V68.267c0-4.71,3.823-8.533,8.533-8.533h17.067
		V42.667h-17.067c-4.71,0-8.533-3.823-8.533-8.533V17.067h-17.067v17.067c0,4.71-3.823,8.533-8.533,8.533h-17.067v17.067h17.067
		c4.71,0,8.533,3.823,8.533,8.533v17.732c0,4.463-3.439,8.175-7.893,8.508c-16.341,1.229-31.181,8.354-43.366,15.403
		c0.043,0.333,0.06,0.674,0.06,1.024v25.6h25.6v-17.067c0-4.71,3.823-8.533,8.533-8.533h51.2c4.71,0,8.533,3.823,8.533,8.533
		V136.533z M238.933,85.999h0.085H238.933z"/>
</g>
<g>
</g>
<g>
</g>
<g>
</g>
<g>
</g>
<g>
</g>
<g>
</g>
<g>
</g>
<g>
</g>
<g>
</g>
<g>
</g>
<g>
</g>
<g>
</g>
<g>
</g>
<g>
</g>
<g>
</g>
</svg>
