<?xml version="1.0" encoding="iso-8859-1"?>
<!-- Generator: Adobe Illustrator 19.0.0, SVG Export Plug-In . SVG Version: 6.00 Build 0)  -->
<svg version="1.1" id="Capa_1" xmlns="http://www.w3.org/2000/svg" xmlns:xlink="http://www.w3.org/1999/xlink" x="0px" y="0px"
	 viewBox="0 0 511.987 511.987" style="enable-background:new 0 0 511.987 511.987;" xml:space="preserve">
<g>
	<rect x="192.081" y="375.454" style="fill:#FFFFFF;" width="136.533" height="51.2"/>
	<path style="fill:#FFFFFF;" d="M405.414,503.454H115.281v-27.989c0-12.817,10.394-23.211,23.211-23.211h243.712
		c12.817,0,23.211,10.394,23.211,23.211V503.454z"/>
</g>
<g>
	<path style="fill:#FFFFFF;" d="M354.214,452.254H166.481c-9.387,0-17.067-7.68-17.067-17.067l0,0
		c0-9.387,7.68-17.067,17.067-17.067h187.733c9.387,0,17.067,7.68,17.067,17.067l0,0
		C371.281,444.574,363.601,452.254,354.214,452.254z"/>
	<path style="fill:#FFFFFF;" d="M362.748,383.987c0,0-12.186-42.667,19.234-179.2s-54.989-179.2-117.837-179.2L209.148,8.521
		l15.71,42.667c0,0-39.279,0-47.138,25.6l-25.916,28.151c-11.264,12.237-21.052,25.95-29.636,40.533
		c-12.203,20.736-28.16,42.197,0.555,59.324c0,0,31.428,34.133,62.848-8.533c0,0,15.71-17.067,39.279,0c0,0,15.71,8.533,39.279,0
		c0,0-101.982,25.6-109.833,187.733C154.313,383.987,370.607,383.987,362.748,383.987z"/>
</g>
<g>
	<path style="fill:#000000;" d="M405.414,511.987H115.281c-4.71,0-8.533-3.823-8.533-8.533v-27.989
		c0-17.502,14.242-31.744,31.744-31.744h243.712c17.502,0,31.744,14.242,31.744,31.744v27.989
		C413.948,508.165,410.133,511.987,405.414,511.987z M123.814,494.921h273.067v-19.456c0-8.098-6.579-14.677-14.677-14.677H138.492
		c-8.09,0-14.677,6.579-14.677,14.677C123.814,475.465,123.814,494.921,123.814,494.921z"/>
	<path style="fill:#000000;" d="M354.214,460.787H166.481c-14.114,0-25.6-11.486-25.6-25.6c0-14.114,11.486-25.6,25.6-25.6h187.733
		c14.114,0,25.6,11.486,25.6,25.6C379.814,449.302,368.337,460.787,354.214,460.787z M166.481,426.654
		c-4.71,0-8.533,3.831-8.533,8.533c0,4.702,3.823,8.533,8.533,8.533h187.733c4.702,0,8.533-3.831,8.533-8.533
		c0-4.702-3.831-8.533-8.533-8.533H166.481z"/>
	<path style="fill:#000000;" d="M328.614,426.654H192.081c-4.71,0-8.533-3.823-8.533-8.533v-34.133c0-4.71,3.823-8.533,8.533-8.533
		h136.533c4.71,0,8.533,3.823,8.533,8.533v34.133C337.148,422.831,333.333,426.654,328.614,426.654z M200.614,409.587h119.467
		v-17.067H200.614V409.587z"/>
	<path style="fill:#000000;" d="M362.961,392.521H154.313c-2.338,0-4.565-0.956-6.178-2.645c-1.613-1.69-2.458-3.968-2.347-6.298
		c5.077-104.866,48.111-154.778,80.384-177.638c-3.26-1.058-5.146-2.048-5.385-2.176c-0.324-0.179-0.631-0.367-0.93-0.589
		c-15.991-11.58-26.052-3.038-27.75-1.382c-11.494,15.411-24.55,23.62-38.818,24.397c-18.449,0.998-32.205-11.059-35.883-14.652
		c-10.044-6.221-16.247-13.781-18.441-22.485c-3.806-15.138,4.821-29.517,13.167-43.418l2.679-4.497
		c9.335-15.863,19.669-29.995,30.711-41.975l24.695-26.82c7.313-19.908,29.022-26.47,42.795-28.621l-11.878-32.239
		c-1.118-3.046-0.418-6.468,1.818-8.823s5.615-3.234,8.721-2.278l53.777,16.691c42.18,0.358,81.195,17.997,104.55,47.343
		c27.307,34.313,34.133,82.185,20.301,142.293c-27.332,118.758-21.129,165.521-19.61,173.687c0.512,1.092,0.794,2.313,0.794,3.601
		C371.494,388.698,367.672,392.521,362.961,392.521z M163.375,375.454h189.423c-2.031-20.224-2.509-70.989,20.873-172.578
		c12.612-54.793,6.886-97.809-17.024-127.838c-20.386-25.617-54.972-40.917-92.501-40.917c-0.862,0-1.707-0.128-2.526-0.384
		l-38.485-11.938l9.737,26.436c0.964,2.62,0.589,5.538-1.007,7.834c-1.596,2.287-4.207,3.652-6.997,3.652
		c-0.316,0-33.084,0.358-38.98,19.567c-0.375,1.22-1.015,2.338-1.877,3.277l-25.916,28.151
		c-10.223,11.102-19.831,24.252-28.561,39.083l-2.756,4.625c-6.554,10.914-13.329,22.204-11.255,30.473
		c1.126,4.48,4.915,8.593,11.58,12.57c0.708,0.418,1.348,0.947,1.903,1.553c0.077,0.077,10.453,10.863,23.467,10.138
		c9.037-0.546,17.869-6.579,26.231-17.954c0.188-0.247,0.384-0.486,0.597-0.717c7.151-7.774,26.718-17.971,49.963-1.562
		c1.954,0.887,12.126,4.924,27.324,0.794c3.021-1.084,4.949-1.596,5.478-1.724c4.429-1.109,8.909,1.434,10.24,5.777
		c1.323,4.343-0.981,8.969-5.257,10.522c-1.843,0.666-3.644,1.246-5.41,1.732C242.692,212.971,172.634,247.198,163.375,375.454z"/>
	<path style="fill:#000000;" d="M122.739,213.321c-2.253,0-4.506-0.887-6.187-2.654c-3.251-3.413-3.115-8.815,0.299-12.066
		l26.351-25.071c3.413-3.243,8.815-3.115,12.066,0.307c3.251,3.413,3.115,8.815-0.299,12.066l-26.351,25.071
		C126.963,212.544,124.847,213.321,122.739,213.321z"/>
	<path style="fill:#000000;" d="M226.214,119.454c-2.185,0-4.369-0.836-6.033-2.5c-3.337-3.337-3.337-8.73,0-12.066l17.067-17.067
		c3.328-3.337,8.73-3.337,12.066,0c3.337,3.337,3.337,8.73,0,12.066l-17.067,17.067
		C230.584,118.618,228.399,119.454,226.214,119.454z"/>
</g>
<g>
</g>
<g>
</g>
<g>
</g>
<g>
</g>
<g>
</g>
<g>
</g>
<g>
</g>
<g>
</g>
<g>
</g>
<g>
</g>
<g>
</g>
<g>
</g>
<g>
</g>
<g>
</g>
<g>
</g>
</svg>
