<?xml version="1.0" encoding="iso-8859-1"?>
<!-- Generator: Adobe Illustrator 19.0.0, SVG Export Plug-In . SVG Version: 6.00 Build 0)  -->
<svg version="1.1" id="Capa_1" xmlns="http://www.w3.org/2000/svg" xmlns:xlink="http://www.w3.org/1999/xlink" x="0px" y="0px"
	 viewBox="0 0 512 512" style="enable-background:new 0 0 512 512;" xml:space="preserve">
<g>
	<rect x="204.8" y="119.467" style="fill:#000000;" width="102.4" height="59.733"/>
	<rect x="204.8" y="196.267" style="fill:#000000;" width="102.4" height="59.733"/>
	<path style="fill:#000000;" d="M307.2,297.284v-32.751H204.8v32.751c0,17.869-2.884,35.627-8.533,52.582
		c-5.649,16.956-8.533,26.18-8.533,44.049V435.2h136.533v-41.284c0-17.869-2.884-27.093-8.533-44.049
		C310.084,332.911,307.2,315.153,307.2,297.284z"/>
	<path style="fill:#000000;" d="M384,503.467H128c-9.429,0-17.067-7.637-17.067-17.067v-8.533c0-9.429,7.637-17.067,17.067-17.067
		h256c9.429,0,17.067,7.637,17.067,17.067v8.533C401.067,495.829,393.429,503.467,384,503.467z"/>
</g>
<g>
	<path style="fill:#000000;" d="M341.333,460.8H170.667c-9.429,0-17.067-7.637-17.067-17.067l0,0
		c0-9.429,7.637-17.067,17.067-17.067h170.667c9.429,0,17.067,7.637,17.067,17.067l0,0C358.4,453.163,350.763,460.8,341.333,460.8z"
		/>
	<rect x="179.2" y="247.467" style="fill:#000000;" width="153.6" height="34.133"/>
	<path style="fill:#000000;" d="M315.733,204.8H196.267c-9.429,0-17.067-7.637-17.067-17.067l0,0
		c0-9.429,7.637-17.067,17.067-17.067h119.467c9.429,0,17.067,7.637,17.067,17.067l0,0C332.8,197.163,325.163,204.8,315.733,204.8z"
		/>
	<path style="fill:#000000;" d="M315.733,128H196.267c-9.429,0-17.067-7.637-17.067-17.067l0,0c0-9.429,7.637-17.067,17.067-17.067
		h119.467c9.429,0,17.067,7.637,17.067,17.067l0,0C332.8,120.363,325.163,128,315.733,128z"/>
	<circle style="fill:#000000;" cx="256" cy="34.133" r="25.6"/>
</g>
<path style="fill:#000000;" d="M290.133,93.867h-68.267l0,0c0-18.85,15.283-34.133,34.133-34.133l0,0
	C274.85,59.733,290.133,75.017,290.133,93.867L290.133,93.867z"/>
<g>
	<path style="fill:#FFFFFF;" d="M384,512H128c-14.114,0-25.6-11.486-25.6-25.6v-8.533c0-14.114,11.486-25.6,25.6-25.6h256
		c14.114,0,25.6,11.486,25.6,25.6v8.533C409.6,500.514,398.114,512,384,512z M128,469.333c-4.71,0-8.533,3.831-8.533,8.533v8.533
		c0,4.702,3.823,8.533,8.533,8.533h256c4.71,0,8.533-3.831,8.533-8.533v-8.533c0-4.702-3.823-8.533-8.533-8.533H128z"/>
	<path style="fill:#FFFFFF;" d="M341.333,469.333H170.667c-14.114,0-25.6-11.486-25.6-25.6c0-14.114,11.486-25.6,25.6-25.6h170.667
		c14.114,0,25.6,11.486,25.6,25.6C366.933,457.847,355.447,469.333,341.333,469.333z M170.667,435.2
		c-4.71,0-8.533,3.831-8.533,8.533c0,4.702,3.823,8.533,8.533,8.533h170.667c4.71,0,8.533-3.831,8.533-8.533
		c0-4.702-3.823-8.533-8.533-8.533H170.667z"/>
	<path style="fill:#FFFFFF;" d="M332.8,290.133H179.2c-4.71,0-8.533-3.823-8.533-8.533v-34.133c0-4.71,3.823-8.533,8.533-8.533
		h153.6c4.71,0,8.533,3.823,8.533,8.533V281.6C341.333,286.31,337.51,290.133,332.8,290.133z M187.733,273.067h136.533V256H187.733
		V273.067z"/>
	<path style="fill:#FFFFFF;" d="M315.733,213.333H196.267c-14.114,0-25.6-11.486-25.6-25.6c0-14.114,11.486-25.6,25.6-25.6h119.467
		c14.114,0,25.6,11.486,25.6,25.6C341.333,201.847,329.847,213.333,315.733,213.333z M196.267,179.2
		c-4.71,0-8.533,3.831-8.533,8.533s3.823,8.533,8.533,8.533h119.467c4.71,0,8.533-3.831,8.533-8.533s-3.823-8.533-8.533-8.533
		H196.267z"/>
	<path style="fill:#FFFFFF;" d="M315.733,136.533H196.267c-14.114,0-25.6-11.486-25.6-25.6s11.486-25.6,25.6-25.6h119.467
		c14.114,0,25.6,11.486,25.6,25.6S329.847,136.533,315.733,136.533z M196.267,102.4c-4.71,0-8.533,3.831-8.533,8.533
		c0,4.702,3.823,8.533,8.533,8.533h119.467c4.71,0,8.533-3.831,8.533-8.533c0-4.702-3.823-8.533-8.533-8.533H196.267z"/>
	<path style="fill:#FFFFFF;" d="M307.2,256H204.8c-4.71,0-8.533-3.823-8.533-8.533V204.8c0-4.71,3.823-8.533,8.533-8.533h102.4
		c4.71,0,8.533,3.823,8.533,8.533v42.667C315.733,252.177,311.91,256,307.2,256z M213.333,238.933h85.333v-25.6h-85.333V238.933z"/>
	<path style="fill:#FFFFFF;" d="M324.267,435.2H187.733c-4.71,0-8.533-3.823-8.533-8.533v-32.751
		c0-18.944,3.081-29.056,8.969-46.746c5.376-16.119,8.098-32.905,8.098-49.886V281.6c0-4.71,3.823-8.533,8.533-8.533h102.4
		c4.71,0,8.533,3.823,8.533,8.533v15.684c0,16.981,2.722,33.766,8.098,49.886c5.888,17.69,8.969,27.802,8.969,46.746v32.751
		C332.8,431.377,328.977,435.2,324.267,435.2z M196.267,418.133h119.467v-24.218c0-16.367-2.483-24.508-8.098-41.353
		c-5.948-17.86-8.969-36.463-8.969-55.279v-7.151h-85.333v7.151c0,18.825-3.021,37.419-8.969,55.279
		c-5.615,16.845-8.098,24.986-8.098,41.353V418.133z"/>
	<path style="fill:#FFFFFF;" d="M307.2,179.2H204.8c-4.71,0-8.533-3.823-8.533-8.533V128c0-4.71,3.823-8.533,8.533-8.533h102.4
		c4.71,0,8.533,3.823,8.533,8.533v42.667C315.733,175.377,311.91,179.2,307.2,179.2z M213.333,162.133h85.333v-25.6h-85.333V162.133
		z"/>
	<path style="fill:#FFFFFF;" d="M256,68.267c-18.825,0-34.133-15.309-34.133-34.133S237.175,0,256,0
		c18.825,0,34.133,15.309,34.133,34.133S274.825,68.267,256,68.267z M256,17.067c-9.412,0-17.067,7.654-17.067,17.067
		S246.588,51.2,256,51.2c9.412,0,17.067-7.654,17.067-17.067S265.412,17.067,256,17.067z"/>
	<path style="fill:#FFFFFF;" d="M290.133,102.4h-68.267c-4.71,0-8.533-3.823-8.533-8.533c0-23.526,19.14-42.667,42.667-42.667
		c23.526,0,42.667,19.14,42.667,42.667C298.667,98.577,294.844,102.4,290.133,102.4z M231.859,85.333h48.273
		c-3.516-9.933-13.005-17.067-24.132-17.067C244.873,68.267,235.383,75.401,231.859,85.333z"/>
</g>
<g>
</g>
<g>
</g>
<g>
</g>
<g>
</g>
<g>
</g>
<g>
</g>
<g>
</g>
<g>
</g>
<g>
</g>
<g>
</g>
<g>
</g>
<g>
</g>
<g>
</g>
<g>
</g>
<g>
</g>
</svg>
