<?xml version="1.0" encoding="iso-8859-1"?>
<!-- Generator: Adobe Illustrator 19.0.0, SVG Export Plug-In . SVG Version: 6.00 Build 0)  -->
<svg version="1.1" id="Capa_1" xmlns="http://www.w3.org/2000/svg" xmlns:xlink="http://www.w3.org/1999/xlink" x="0px" y="0px"
	 viewBox="0 0 512 512" style="enable-background:new 0 0 512 512;" xml:space="preserve">
<g>
	<rect x="198.038" y="125.585" style="fill:#FFFFFF;" width="115.925" height="57.962"/>
	<path style="fill:#FFFFFF;" d="M323.623,220.624v-17.756H188.377v17.756c0,20.229-1.256,49.992-8.453,69.188
		c-7.197,19.195-10.868,39.298-10.868,59.527v75.718h173.887v-75.718c0-20.229-3.671-40.332-10.868-59.527
		S323.623,240.853,323.623,220.624z"/>
	<path style="fill:#FFFFFF;" d="M400.906,502.34H111.094c-10.675,0-19.321-8.646-19.321-19.321v-9.66
		c0-10.675,8.646-19.321,19.321-19.321h289.811c10.675,0,19.321,8.646,19.321,19.321v9.66
		C420.226,493.694,411.58,502.34,400.906,502.34z"/>
</g>
<g>
	<path style="fill:#FFFFFF;" d="M352.604,454.038H159.396c-10.675,0-19.321-8.646-19.321-19.321l0,0
		c0-10.675,8.646-19.321,19.321-19.321h193.208c10.675,0,19.321,8.646,19.321,19.321l0,0
		C371.925,445.392,363.279,454.038,352.604,454.038z"/>
	<path style="fill:#FFFFFF;" d="M352.604,212.528H159.396c-10.675,0-19.321-8.646-19.321-19.321l0,0
		c0-10.675,8.646-19.321,19.321-19.321h193.208c10.675,0,19.321,8.646,19.321,19.321l0,0
		C371.925,203.882,363.279,212.528,352.604,212.528z"/>
	<polygon style="fill:#FFFFFF;" points="323.623,9.66 323.623,48.302 284.981,48.302 304.302,48.302 275.321,48.302 275.321,9.66 
		236.679,9.66 236.679,48.302 188.377,48.302 188.377,9.66 149.736,9.66 149.736,86.943 198.038,135.245 313.962,135.245 
		362.264,86.943 362.264,9.66 	"/>
</g>
<g>
	<path style="fill:#000000;" d="M400.906,512H111.094c-15.978,0-28.981-13.003-28.981-28.981v-9.66
		c0-15.978,13.003-28.981,28.981-28.981h289.811c15.978,0,28.981,13.003,28.981,28.981v9.66
		C429.887,498.997,416.884,512,400.906,512z M111.094,463.698c-5.333,0-9.66,4.338-9.66,9.66v9.66c0,5.323,4.328,9.66,9.66,9.66
		h289.811c5.333,0,9.66-4.338,9.66-9.66v-9.66c0-5.323-4.328-9.66-9.66-9.66H111.094z"/>
	<path style="fill:#000000;" d="M352.604,463.698H159.396c-15.978,0-28.981-13.003-28.981-28.981
		c0-15.978,13.003-28.981,28.981-28.981h193.208c15.978,0,28.981,13.003,28.981,28.981
		C381.585,450.695,368.582,463.698,352.604,463.698z M159.396,425.057c-5.333,0-9.66,4.338-9.66,9.66c0,5.323,4.328,9.66,9.66,9.66
		h193.208c5.333,0,9.66-4.338,9.66-9.66c0-5.323-4.328-9.66-9.66-9.66H159.396z"/>
	<path style="fill:#000000;" d="M352.604,222.189H159.396c-15.978,0-28.981-13.003-28.981-28.981s13.003-28.981,28.981-28.981
		h193.208c15.978,0,28.981,13.003,28.981,28.981S368.582,222.189,352.604,222.189z M159.396,183.547c-5.333,0-9.66,4.337-9.66,9.66
		s4.328,9.66,9.66,9.66h193.208c5.333,0,9.66-4.337,9.66-9.66s-4.328-9.66-9.66-9.66H159.396z"/>
	<path style="fill:#000000;" d="M313.962,183.547H198.038c-5.333,0-9.66-4.328-9.66-9.66v-38.642c0-5.333,4.328-9.66,9.66-9.66
		h115.925c5.333,0,9.66,4.328,9.66,9.66v38.642C323.623,179.219,319.295,183.547,313.962,183.547z M207.698,164.226h96.604v-19.321
		h-96.604V164.226z"/>
	<path style="fill:#000000;" d="M342.943,425.057H169.057c-5.333,0-9.66-4.328-9.66-9.66v-66.058
		c0-21.427,3.864-42.593,11.486-62.918c5.12-13.679,7.835-36.429,7.835-65.797v-8.095c0-5.333,4.328-9.66,9.66-9.66h135.245
		c5.333,0,9.66,4.328,9.66,9.66v8.095c0,29.368,2.715,52.118,7.835,65.797c7.622,20.325,11.486,41.491,11.486,62.918v66.058
		C352.604,420.729,348.276,425.057,342.943,425.057z M178.717,405.736h154.566v-56.397c0-19.108-3.449-37.994-10.25-56.136
		c-5.922-15.785-8.974-39.675-9.071-71.013H198.038c-0.097,31.338-3.149,55.228-9.061,71.013
		c-6.811,18.142-10.259,37.038-10.259,56.136V405.736z"/>
	<path style="fill:#000000;" d="M313.962,144.906H198.038c-2.56,0-5.023-1.014-6.83-2.831l-48.302-48.302
		c-1.816-1.806-2.83-4.27-2.83-6.83V9.66c0-5.333,4.328-9.66,9.66-9.66h38.642c5.333,0,9.66,4.328,9.66,9.66v28.981h28.981V9.66
		c0-5.333,4.328-9.66,9.66-9.66h38.642c5.333,0,9.66,4.328,9.66,9.66v28.981h28.981V9.66c0-5.333,4.328-9.66,9.66-9.66h38.642
		c5.333,0,9.66,4.328,9.66,9.66v77.283c0,2.56-1.014,5.023-2.83,6.83l-48.302,48.302
		C318.986,143.891,316.522,144.906,313.962,144.906z M202.037,125.585h107.916l42.651-42.641V19.321h-19.321v28.981
		c0,5.333-4.328,9.66-9.66,9.66h-48.302c-5.333,0-9.66-4.328-9.66-9.66V19.321H246.34v28.981c0,5.333-4.328,9.66-9.66,9.66h-48.302
		c-5.333,0-9.66-4.328-9.66-9.66V19.321h-19.321v63.623L202.037,125.585z"/>
</g>
<g>
</g>
<g>
</g>
<g>
</g>
<g>
</g>
<g>
</g>
<g>
</g>
<g>
</g>
<g>
</g>
<g>
</g>
<g>
</g>
<g>
</g>
<g>
</g>
<g>
</g>
<g>
</g>
<g>
</g>
</svg>
